<mxfile host="65bd71144e">
    <diagram name="Page-1" id="97916047-d0de-89f5-080d-49f4d83e522f">
        <mxGraphModel dx="1492" dy="596" grid="1" gridSize="10" guides="1" tooltips="1" connect="1" arrows="1" fold="1" page="1" pageScale="1.5" pageWidth="1169" pageHeight="827" background="none" math="0" shadow="0">
            <root>
                <mxCell id="0"/>
                <mxCell id="1" parent="0"/>
                <mxCell id="80" value="" style="group" vertex="1" connectable="0" parent="1">
                    <mxGeometry x="700" y="440" width="510" height="350" as="geometry"/>
                </mxCell>
                <mxCell id="FAe4sGT7Xk_M7wpkX6ti-58" value="Control System" style="rounded=1;fillColor=#ffe6cc;strokeColor=#d79b00;shadow=1;fontStyle=1;fontSize=14;strokeWidth=3;verticalAlign=top;" parent="80" vertex="1">
                    <mxGeometry width="510" height="350" as="geometry"/>
                </mxCell>
                <mxCell id="FAe4sGT7Xk_M7wpkX6ti-77" value="CUAV V5&#10;Nano FC" style="rounded=1;fillColor=#10739E;strokeColor=none;shadow=1;gradientColor=none;fontStyle=1;fontColor=#000000;fontSize=14;verticalAlign=bottom;labelPosition=center;verticalLabelPosition=top;align=center;" parent="80" vertex="1">
                    <mxGeometry x="220" y="71" width="70" height="249" as="geometry"/>
                </mxCell>
                <mxCell id="FAe4sGT7Xk_M7wpkX6ti-78" value="&lt;b&gt;M1&lt;/b&gt;" style="ellipse;whiteSpace=wrap;html=1;aspect=fixed;" parent="80" vertex="1">
                    <mxGeometry x="242.5" y="91" width="25" height="25" as="geometry"/>
                </mxCell>
                <mxCell id="FAe4sGT7Xk_M7wpkX6ti-79" value="&lt;b&gt;M2&lt;/b&gt;" style="ellipse;whiteSpace=wrap;html=1;aspect=fixed;" parent="80" vertex="1">
                    <mxGeometry x="242.5" y="131" width="25" height="25" as="geometry"/>
                </mxCell>
                <mxCell id="FAe4sGT7Xk_M7wpkX6ti-80" value="&lt;b&gt;M3&lt;/b&gt;" style="ellipse;whiteSpace=wrap;html=1;aspect=fixed;" parent="80" vertex="1">
                    <mxGeometry x="242.5" y="171.5" width="25" height="25" as="geometry"/>
                </mxCell>
                <mxCell id="FAe4sGT7Xk_M7wpkX6ti-81" value="&lt;b&gt;M4&lt;/b&gt;" style="ellipse;whiteSpace=wrap;html=1;aspect=fixed;" parent="80" vertex="1">
                    <mxGeometry x="242.5" y="213.5" width="25" height="25" as="geometry"/>
                </mxCell>
                <mxCell id="FAe4sGT7Xk_M7wpkX6ti-82" value="UART4" style="rounded=1;shadow=1;fontStyle=1;fontSize=13;horizontal=1;" parent="80" vertex="1">
                    <mxGeometry x="230" y="251" width="50" height="20" as="geometry"/>
                </mxCell>
                <mxCell id="FAe4sGT7Xk_M7wpkX6ti-83" value="BLS 50A&#10;ESC" style="rounded=1;fillColor=#10739E;strokeColor=none;shadow=1;gradientColor=none;fontStyle=1;fontColor=#000000;fontSize=14;verticalAlign=bottom;labelPosition=center;verticalLabelPosition=top;align=center;" parent="80" vertex="1">
                    <mxGeometry x="50" y="71" width="70" height="220" as="geometry"/>
                </mxCell>
                <mxCell id="FAe4sGT7Xk_M7wpkX6ti-84" value="&lt;b&gt;S1&lt;/b&gt;" style="ellipse;whiteSpace=wrap;html=1;aspect=fixed;" parent="80" vertex="1">
                    <mxGeometry x="72.5" y="91" width="25" height="25" as="geometry"/>
                </mxCell>
                <mxCell id="FAe4sGT7Xk_M7wpkX6ti-85" value="&lt;b&gt;S2&lt;/b&gt;" style="ellipse;whiteSpace=wrap;html=1;aspect=fixed;" parent="80" vertex="1">
                    <mxGeometry x="72.5" y="131" width="25" height="25" as="geometry"/>
                </mxCell>
                <mxCell id="FAe4sGT7Xk_M7wpkX6ti-86" value="&lt;b&gt;S3&lt;/b&gt;" style="ellipse;whiteSpace=wrap;html=1;aspect=fixed;" parent="80" vertex="1">
                    <mxGeometry x="72.5" y="171.5" width="25" height="25" as="geometry"/>
                </mxCell>
                <mxCell id="FAe4sGT7Xk_M7wpkX6ti-87" value="&lt;b&gt;S4&lt;/b&gt;" style="ellipse;whiteSpace=wrap;html=1;aspect=fixed;" parent="80" vertex="1">
                    <mxGeometry x="72.5" y="213.5" width="25" height="25" as="geometry"/>
                </mxCell>
                <mxCell id="FAe4sGT7Xk_M7wpkX6ti-88" value="Telem" style="rounded=1;shadow=1;fontStyle=1;fontSize=13;horizontal=1;" parent="80" vertex="1">
                    <mxGeometry x="60" y="251" width="50" height="20" as="geometry"/>
                </mxCell>
                <mxCell id="FAe4sGT7Xk_M7wpkX6ti-73" value="" style="edgeStyle=elbowEdgeStyle;strokeWidth=4;endArrow=block;endFill=1;fontStyle=1;strokeColor=#82b366;entryX=0;entryY=0.5;entryDx=0;entryDy=0;fillColor=#d5e8d4;exitX=1;exitY=0.5;exitDx=0;exitDy=0;" parent="80" source="FAe4sGT7Xk_M7wpkX6ti-84" target="FAe4sGT7Xk_M7wpkX6ti-78" edge="1">
                    <mxGeometry x="-688" y="-624.5" width="100" height="100" as="geometry">
                        <mxPoint x="10" y="104" as="sourcePoint"/>
                        <mxPoint x="260" y="106" as="targetPoint"/>
                        <Array as="points">
                            <mxPoint x="120" y="91"/>
                        </Array>
                    </mxGeometry>
                </mxCell>
                <mxCell id="FAe4sGT7Xk_M7wpkX6ti-74" value="" style="edgeStyle=elbowEdgeStyle;strokeWidth=4;endArrow=block;endFill=1;fontStyle=1;strokeColor=#82b366;entryX=0;entryY=0.5;entryDx=0;entryDy=0;fillColor=#d5e8d4;exitX=1;exitY=0.5;exitDx=0;exitDy=0;" parent="80" source="FAe4sGT7Xk_M7wpkX6ti-86" target="FAe4sGT7Xk_M7wpkX6ti-80" edge="1">
                    <mxGeometry x="-688" y="-624.5" width="100" height="100" as="geometry">
                        <mxPoint x="10" y="184" as="sourcePoint"/>
                        <mxPoint x="260" y="201" as="targetPoint"/>
                        <Array as="points">
                            <mxPoint x="120" y="186"/>
                        </Array>
                    </mxGeometry>
                </mxCell>
                <mxCell id="FAe4sGT7Xk_M7wpkX6ti-75" value="" style="edgeStyle=elbowEdgeStyle;strokeWidth=4;endArrow=block;endFill=1;fontStyle=1;strokeColor=#82b366;entryX=0;entryY=0.5;entryDx=0;entryDy=0;fillColor=#d5e8d4;exitX=1;exitY=0.5;exitDx=0;exitDy=0;" parent="80" source="FAe4sGT7Xk_M7wpkX6ti-87" target="FAe4sGT7Xk_M7wpkX6ti-81" edge="1">
                    <mxGeometry x="-688" y="-624.5" width="100" height="100" as="geometry">
                        <mxPoint x="10" y="226" as="sourcePoint"/>
                        <mxPoint x="260" y="251" as="targetPoint"/>
                        <Array as="points">
                            <mxPoint x="120" y="236"/>
                        </Array>
                    </mxGeometry>
                </mxCell>
                <mxCell id="FAe4sGT7Xk_M7wpkX6ti-76" value="" style="edgeStyle=elbowEdgeStyle;strokeWidth=4;endArrow=block;endFill=1;fontStyle=1;strokeColor=#82b366;entryX=0;entryY=0.5;entryDx=0;entryDy=0;fillColor=#d5e8d4;exitX=1;exitY=0.5;exitDx=0;exitDy=0;" parent="80" source="FAe4sGT7Xk_M7wpkX6ti-85" target="FAe4sGT7Xk_M7wpkX6ti-79" edge="1">
                    <mxGeometry x="-688" y="-624.5" width="100" height="100" as="geometry">
                        <mxPoint x="10" y="144" as="sourcePoint"/>
                        <mxPoint x="260" y="151" as="targetPoint"/>
                        <Array as="points"/>
                    </mxGeometry>
                </mxCell>
                <mxCell id="FAe4sGT7Xk_M7wpkX6ti-89" value="Pi 4B" style="rounded=1;fillColor=#10739E;strokeColor=none;shadow=1;gradientColor=none;fontStyle=1;fontColor=#000000;fontSize=14;verticalAlign=bottom;labelPosition=center;verticalLabelPosition=top;align=center;" parent="80" vertex="1">
                    <mxGeometry x="380" y="71" width="70" height="189" as="geometry"/>
                </mxCell>
                <mxCell id="FAe4sGT7Xk_M7wpkX6ti-90" value="&lt;b&gt;tx&lt;/b&gt;" style="ellipse;whiteSpace=wrap;html=1;aspect=fixed;" parent="80" vertex="1">
                    <mxGeometry x="402.5" y="91" width="30" height="30" as="geometry"/>
                </mxCell>
                <mxCell id="FAe4sGT7Xk_M7wpkX6ti-91" value="&lt;b&gt;rx&lt;/b&gt;" style="ellipse;whiteSpace=wrap;html=1;aspect=fixed;" parent="80" vertex="1">
                    <mxGeometry x="402.5" y="131" width="30" height="30" as="geometry"/>
                </mxCell>
                <mxCell id="FAe4sGT7Xk_M7wpkX6ti-92" value="&lt;b&gt;5v&lt;/b&gt;" style="ellipse;whiteSpace=wrap;html=1;aspect=fixed;" parent="80" vertex="1">
                    <mxGeometry x="402.5" y="171.5" width="30" height="30" as="geometry"/>
                </mxCell>
                <mxCell id="FAe4sGT7Xk_M7wpkX6ti-93" value="&lt;b&gt;GND&lt;/b&gt;" style="ellipse;whiteSpace=wrap;html=1;aspect=fixed;" parent="80" vertex="1">
                    <mxGeometry x="402.5" y="213.5" width="30" height="30" as="geometry"/>
                </mxCell>
                <mxCell id="FAe4sGT7Xk_M7wpkX6ti-95" value="" style="edgeStyle=elbowEdgeStyle;strokeWidth=4;endArrow=block;endFill=1;fontStyle=1;strokeColor=#82b366;entryX=0;entryY=0.5;entryDx=0;entryDy=0;fillColor=#d5e8d4;exitX=1;exitY=0.5;exitDx=0;exitDy=0;" parent="80" source="FAe4sGT7Xk_M7wpkX6ti-88" target="FAe4sGT7Xk_M7wpkX6ti-82" edge="1">
                    <mxGeometry x="-688" y="-624.5" width="100" height="100" as="geometry">
                        <mxPoint x="108" y="236" as="sourcePoint"/>
                        <mxPoint x="253" y="236" as="targetPoint"/>
                        <Array as="points">
                            <mxPoint x="170" y="270"/>
                        </Array>
                    </mxGeometry>
                </mxCell>
                <mxCell id="FAe4sGT7Xk_M7wpkX6ti-96" value="TELEM2" style="rounded=1;shadow=1;fontStyle=1;fontSize=13;horizontal=1;" parent="80" vertex="1">
                    <mxGeometry x="225" y="285" width="60" height="20" as="geometry"/>
                </mxCell>
                <mxCell id="FAe4sGT7Xk_M7wpkX6ti-99" value="" style="edgeStyle=elbowEdgeStyle;strokeWidth=4;endArrow=block;endFill=1;fontStyle=1;strokeColor=#82b366;entryX=0;entryY=0.5;entryDx=0;entryDy=0;fillColor=#d5e8d4;exitX=1;exitY=0.5;exitDx=0;exitDy=0;" parent="80" source="FAe4sGT7Xk_M7wpkX6ti-96" target="FAe4sGT7Xk_M7wpkX6ti-90" edge="1">
                    <mxGeometry x="-688" y="-624.5" width="100" height="100" as="geometry">
                        <mxPoint x="120" y="271" as="sourcePoint"/>
                        <mxPoint x="240" y="271" as="targetPoint"/>
                        <Array as="points">
                            <mxPoint x="330" y="200"/>
                        </Array>
                    </mxGeometry>
                </mxCell>
                <mxCell id="FAe4sGT7Xk_M7wpkX6ti-100" value="" style="edgeStyle=elbowEdgeStyle;strokeWidth=4;endArrow=block;endFill=1;fontStyle=1;strokeColor=#82b366;entryX=0;entryY=0.5;entryDx=0;entryDy=0;fillColor=#d5e8d4;exitX=1;exitY=0.5;exitDx=0;exitDy=0;" parent="80" source="FAe4sGT7Xk_M7wpkX6ti-96" target="FAe4sGT7Xk_M7wpkX6ti-91" edge="1">
                    <mxGeometry x="-688" y="-624.5" width="100" height="100" as="geometry">
                        <mxPoint x="280" y="300" as="sourcePoint"/>
                        <mxPoint x="413" y="116" as="targetPoint"/>
                        <Array as="points">
                            <mxPoint x="330" y="220"/>
                        </Array>
                    </mxGeometry>
                </mxCell>
                <mxCell id="FAe4sGT7Xk_M7wpkX6ti-101" value="" style="edgeStyle=elbowEdgeStyle;strokeWidth=4;endArrow=block;endFill=1;fontStyle=1;strokeColor=#82b366;entryX=0;entryY=0.5;entryDx=0;entryDy=0;fillColor=#d5e8d4;exitX=1;exitY=0.5;exitDx=0;exitDy=0;" parent="80" source="FAe4sGT7Xk_M7wpkX6ti-96" target="FAe4sGT7Xk_M7wpkX6ti-92" edge="1">
                    <mxGeometry x="-688" y="-624.5" width="100" height="100" as="geometry">
                        <mxPoint x="295" y="305" as="sourcePoint"/>
                        <mxPoint x="413" y="156" as="targetPoint"/>
                        <Array as="points">
                            <mxPoint x="330" y="250"/>
                        </Array>
                    </mxGeometry>
                </mxCell>
                <mxCell id="FAe4sGT7Xk_M7wpkX6ti-102" value="" style="edgeStyle=elbowEdgeStyle;strokeWidth=4;endArrow=block;endFill=1;fontStyle=1;strokeColor=#82b366;entryX=0;entryY=0.5;entryDx=0;entryDy=0;fillColor=#d5e8d4;exitX=1;exitY=0.5;exitDx=0;exitDy=0;" parent="80" source="FAe4sGT7Xk_M7wpkX6ti-96" target="FAe4sGT7Xk_M7wpkX6ti-93" edge="1">
                    <mxGeometry x="-688" y="-624.5" width="100" height="100" as="geometry">
                        <mxPoint x="295" y="305" as="sourcePoint"/>
                        <mxPoint x="413" y="197" as="targetPoint"/>
                        <Array as="points">
                            <mxPoint x="330" y="260"/>
                        </Array>
                    </mxGeometry>
                </mxCell>
                <mxCell id="9Nch-Mfv7iRZc4vsGo1m-54" value="Wiring Diagram" style="rounded=1;fillColor=none;strokeColor=default;shadow=1;gradientColor=none;fontStyle=1;fontColor=#23445D;fontSize=14;strokeWidth=3;verticalAlign=top;" parent="1" vertex="1">
                    <mxGeometry x="90" y="170" width="1150" height="650" as="geometry"/>
                </mxCell>
                <mxCell id="0hPKIBFiTmCVOufTVkQz-49" value="&lt;font style=&quot;font-size: 16px;&quot;&gt;XT60&lt;br&gt;female&lt;br&gt;&lt;/font&gt;" style="edgeLabel;html=1;align=left;verticalAlign=middle;resizable=0;points=[];labelBackgroundColor=none;fontColor=#23445D;" parent="1" vertex="1" connectable="0">
                    <mxGeometry x="99.99545454545455" y="305.00272727272727" as="geometry">
                        <mxPoint x="22" y="64" as="offset"/>
                    </mxGeometry>
                </mxCell>
                <mxCell id="0hPKIBFiTmCVOufTVkQz-33" value="&lt;span style=&quot;font-size: 16px;&quot;&gt;usb-c&lt;/span&gt;" style="edgeLabel;html=1;align=left;verticalAlign=middle;resizable=0;points=[];labelBackgroundColor=none;fontColor=#23445D;" parent="1" vertex="1" connectable="0">
                    <mxGeometry x="793.9954545454545" y="216.00272727272727" as="geometry">
                        <mxPoint x="22" y="64" as="offset"/>
                    </mxGeometry>
                </mxCell>
                <mxCell id="Tr897aCAvD2A82pSiaK6-78" value="&lt;span style=&quot;font-size: 16px;&quot;&gt;usb-c&lt;/span&gt;" style="edgeLabel;html=1;align=left;verticalAlign=middle;resizable=0;points=[];labelBackgroundColor=none;fontColor=#23445D;" parent="1" vertex="1" connectable="0">
                    <mxGeometry x="793.9954545454545" y="185.00272727272727" as="geometry">
                        <mxPoint x="22" y="64" as="offset"/>
                    </mxGeometry>
                </mxCell>
                <mxCell id="Tr897aCAvD2A82pSiaK6-79" value="&lt;span style=&quot;font-size: 16px;&quot;&gt;usb-3&lt;/span&gt;" style="edgeLabel;html=1;align=left;verticalAlign=middle;resizable=0;points=[];labelBackgroundColor=none;fontColor=#23445D;" parent="1" vertex="1" connectable="0">
                    <mxGeometry x="793.9954545454545" y="305.00272727272727" as="geometry">
                        <mxPoint x="22" y="64" as="offset"/>
                    </mxGeometry>
                </mxCell>
                <mxCell id="0hPKIBFiTmCVOufTVkQz-32" value="&lt;font style=&quot;font-size: 16px;&quot;&gt;22.2v&lt;/font&gt;" style="edgeLabel;html=1;align=left;verticalAlign=middle;resizable=0;points=[];labelBackgroundColor=none;fontColor=#B85450;fontStyle=1" parent="1" vertex="1" connectable="0">
                    <mxGeometry x="129.99545454545455" y="260.00272727272727" as="geometry">
                        <mxPoint x="22" y="64" as="offset"/>
                    </mxGeometry>
                </mxCell>
                <mxCell id="Tr897aCAvD2A82pSiaK6-81" value="&lt;font style=&quot;font-size: 16px;&quot;&gt;data&lt;br&gt;pins&lt;br&gt;&lt;/font&gt;" style="edgeLabel;html=1;align=left;verticalAlign=middle;resizable=0;points=[];horizontal=0;labelBackgroundColor=none;fontColor=#23445D;" parent="1" vertex="1" connectable="0">
                    <mxGeometry x="771.9954545454545" y="418.00272727272727" as="geometry">
                        <mxPoint x="22" y="64" as="offset"/>
                    </mxGeometry>
                </mxCell>
                <mxCell id="Tr897aCAvD2A82pSiaK6-80" value="&lt;span style=&quot;font-size: 16px;&quot;&gt;usb-c&lt;/span&gt;" style="edgeLabel;html=1;align=left;verticalAlign=middle;resizable=0;points=[];labelBackgroundColor=none;fontColor=#23445D;" parent="1" vertex="1" connectable="0">
                    <mxGeometry x="793.9954545454545" y="335.00272727272727" as="geometry">
                        <mxPoint x="22" y="64" as="offset"/>
                    </mxGeometry>
                </mxCell>
                <mxCell id="2" value="BEC" style="rounded=1;fillColor=#10739E;strokeColor=none;shadow=1;gradientColor=none;fontStyle=1;fontColor=#FFFFFF;fontSize=14;" parent="1" vertex="1">
                    <mxGeometry x="220" y="431" width="70" height="60" as="geometry"/>
                </mxCell>
                <mxCell id="4" value="DC-DC Buck&#10;Converter" style="rounded=1;fillColor=#10739E;strokeColor=none;shadow=1;gradientColor=none;fontStyle=1;fontColor=#FFFFFF;fontSize=14;" parent="1" vertex="1">
                    <mxGeometry x="420" y="245" width="100" height="60" as="geometry"/>
                </mxCell>
                <mxCell id="29" value="" style="edgeStyle=elbowEdgeStyle;strokeWidth=4;endArrow=block;endFill=1;fontStyle=1;strokeColor=#23445D;exitX=1;exitY=0.75;exitDx=0;exitDy=0;entryX=0;entryY=0.5;entryDx=0;entryDy=0;" parent="1" source="2" target="48" edge="1">
                    <mxGeometry x="22" y="125.5" width="100" height="100" as="geometry">
                        <mxPoint x="72" y="225.5" as="sourcePoint"/>
                        <mxPoint x="172" y="125.5" as="targetPoint"/>
                        <Array as="points">
                            <mxPoint x="340" y="500"/>
                        </Array>
                    </mxGeometry>
                </mxCell>
                <mxCell id="Tr897aCAvD2A82pSiaK6-56" value="" style="edgeStyle=elbowEdgeStyle;strokeWidth=4;endArrow=block;endFill=1;fontStyle=1;strokeColor=#23445D;entryX=0;entryY=0.5;entryDx=0;entryDy=0;exitX=1;exitY=0.25;exitDx=0;exitDy=0;" parent="1" source="2" target="4" edge="1">
                    <mxGeometry x="22" y="125.5" width="100" height="100" as="geometry">
                        <mxPoint x="290" y="450" as="sourcePoint"/>
                        <mxPoint x="410" y="365" as="targetPoint"/>
                        <Array as="points">
                            <mxPoint x="320" y="420"/>
                        </Array>
                    </mxGeometry>
                </mxCell>
                <mxCell id="Tr897aCAvD2A82pSiaK6-59" value="" style="edgeStyle=elbowEdgeStyle;strokeWidth=4;endArrow=block;endFill=1;fontStyle=1;strokeColor=#b85450;fillColor=#f8cecc;entryX=0;entryY=0.25;entryDx=0;entryDy=0;exitX=1;exitY=0.5;exitDx=0;exitDy=0;" parent="1" source="4" target="69" edge="1">
                    <mxGeometry x="22" y="95.5" width="100" height="100" as="geometry">
                        <mxPoint x="674.0000000000002" y="580" as="sourcePoint"/>
                        <mxPoint x="883.9999999999998" y="260" as="targetPoint"/>
                        <Array as="points">
                            <mxPoint x="750" y="260"/>
                        </Array>
                    </mxGeometry>
                </mxCell>
                <mxCell id="Tr897aCAvD2A82pSiaK6-62" value="" style="edgeStyle=elbowEdgeStyle;strokeWidth=4;endArrow=block;endFill=1;fontStyle=1;strokeColor=#b85450;exitX=1;exitY=0.5;exitDx=0;exitDy=0;fillColor=#f8cecc;entryX=0;entryY=0.75;entryDx=0;entryDy=0;" parent="1" source="4" target="65" edge="1">
                    <mxGeometry x="22" y="95.5" width="100" height="100" as="geometry">
                        <mxPoint x="674.0000000000002" y="580" as="sourcePoint"/>
                        <mxPoint x="884" y="420" as="targetPoint"/>
                        <Array as="points">
                            <mxPoint x="750" y="340"/>
                        </Array>
                    </mxGeometry>
                </mxCell>
                <mxCell id="Tr897aCAvD2A82pSiaK6-77" value="" style="edgeStyle=elbowEdgeStyle;strokeWidth=4;endArrow=none;endFill=0;fontStyle=1;strokeColor=#82b366;fillColor=#d5e8d4;entryX=0;entryY=0.25;entryDx=0;entryDy=0;exitX=0;exitY=0.75;exitDx=0;exitDy=0;elbow=vertical;startArrow=block;startFill=1;" parent="1" source="69" target="65" edge="1">
                    <mxGeometry x="2" y="-149.5" width="100" height="100" as="geometry">
                        <mxPoint x="883.9999999999998" y="290" as="sourcePoint"/>
                        <mxPoint x="883.9999999999998" y="380" as="targetPoint"/>
                        <Array as="points">
                            <mxPoint x="794" y="365"/>
                        </Array>
                    </mxGeometry>
                </mxCell>
                <mxCell id="0hPKIBFiTmCVOufTVkQz-47" value="6s 3.7Ah&#10;60C battery" style="rounded=1;fillColor=#10739E;strokeColor=none;shadow=1;gradientColor=none;fontStyle=1;fontColor=#FFFFFF;fontSize=14;" parent="1" vertex="1">
                    <mxGeometry x="190" y="340" width="100" height="60" as="geometry"/>
                </mxCell>
                <mxCell id="0hPKIBFiTmCVOufTVkQz-48" value="" style="edgeStyle=elbowEdgeStyle;strokeWidth=4;endArrow=block;endFill=1;fontStyle=1;strokeColor=#23445D;exitX=0;exitY=0.5;exitDx=0;exitDy=0;entryX=0;entryY=0.5;entryDx=0;entryDy=0;" parent="1" source="0hPKIBFiTmCVOufTVkQz-47" target="2" edge="1">
                    <mxGeometry x="22" y="125.5" width="100" height="100" as="geometry">
                        <mxPoint x="300" y="470" as="sourcePoint"/>
                        <mxPoint x="440" y="393" as="targetPoint"/>
                        <Array as="points">
                            <mxPoint x="110" y="420"/>
                        </Array>
                    </mxGeometry>
                </mxCell>
                <mxCell id="31" value="&lt;font style=&quot;font-size: 16px;&quot;&gt;XT60&lt;br&gt;male&lt;br&gt;&lt;/font&gt;" style="edgeLabel;html=1;align=left;verticalAlign=middle;resizable=0;points=[];labelBackgroundColor=none;fontColor=#23445D;" parent="1" vertex="1" connectable="0">
                    <mxGeometry x="99.99545454545455" y="396.00272727272727" as="geometry">
                        <mxPoint x="22" y="64" as="offset"/>
                    </mxGeometry>
                </mxCell>
                <mxCell id="42" value="" style="edgeStyle=elbowEdgeStyle;strokeWidth=4;endArrow=block;endFill=1;fontStyle=1;strokeColor=#23445D;exitX=0.5;exitY=1;exitDx=0;exitDy=0;entryX=0.5;entryY=1;entryDx=0;entryDy=0;" edge="1" parent="1" source="2" target="FAe4sGT7Xk_M7wpkX6ti-77">
                    <mxGeometry x="32" y="135.5" width="100" height="100" as="geometry">
                        <mxPoint x="300" y="500" as="sourcePoint"/>
                        <mxPoint x="854" y="680" as="targetPoint"/>
                        <Array as="points">
                            <mxPoint x="255" y="790"/>
                        </Array>
                    </mxGeometry>
                </mxCell>
                <mxCell id="43" style="edgeStyle=elbowEdgeStyle;rounded=0;orthogonalLoop=1;jettySize=auto;html=1;exitX=0.5;exitY=0;exitDx=0;exitDy=0;dashed=1;strokeColor=#23445D;fontColor=#23445D;" edge="1" parent="1" source="44">
                    <mxGeometry relative="1" as="geometry">
                        <mxPoint x="310" y="730" as="targetPoint"/>
                        <Array as="points">
                            <mxPoint x="284" y="760"/>
                        </Array>
                    </mxGeometry>
                </mxCell>
                <mxCell id="44" value="" style="ellipse;whiteSpace=wrap;html=1;strokeColor=#23445D;fillColor=none;dashed=1;fontColor=#23445D;" vertex="1" parent="1">
                    <mxGeometry x="280" y="775" width="8" height="30" as="geometry"/>
                </mxCell>
                <mxCell id="45" value="&lt;font style=&quot;font-size: 16px;&quot;&gt;6-pin power:&lt;br&gt;POWER_IN&lt;br&gt;CURRENT&lt;br&gt;VOLTAGE&lt;br&gt;GND&lt;br&gt;&lt;/font&gt;" style="edgeLabel;html=1;align=left;verticalAlign=middle;resizable=0;points=[];labelBackgroundColor=none;fontColor=#23445D;" vertex="1" connectable="0" parent="1">
                    <mxGeometry x="295.99545454545455" y="666.0027272727273" as="geometry">
                        <mxPoint x="22" y="64" as="offset"/>
                    </mxGeometry>
                </mxCell>
                <mxCell id="46" value="&lt;font style=&quot;font-size: 16px;&quot;&gt;&lt;br&gt;&lt;/font&gt;" style="edgeLabel;html=1;align=left;verticalAlign=middle;resizable=0;points=[];labelBackgroundColor=none;fontColor=#23445D;" vertex="1" connectable="0" parent="1">
                    <mxGeometry x="299.99545454545455" y="264.00272727272727" as="geometry">
                        <mxPoint x="22" y="64" as="offset"/>
                    </mxGeometry>
                </mxCell>
                <mxCell id="47" value="&lt;font style=&quot;font-size: 16px;&quot;&gt;12 AWG&lt;br&gt;&lt;/font&gt;" style="edgeLabel;html=1;align=left;verticalAlign=middle;resizable=0;points=[];labelBackgroundColor=none;fontColor=#23445D;" vertex="1" connectable="0" parent="1">
                    <mxGeometry x="274.99545454545455" y="426.00272727272727" as="geometry">
                        <mxPoint x="22" y="64" as="offset"/>
                    </mxGeometry>
                </mxCell>
                <mxCell id="48" value="BLS 50A 4in1&#10;ESC" style="rounded=1;fillColor=#10739E;strokeColor=none;shadow=1;gradientColor=none;fontStyle=1;fontColor=#FFFFFF;fontSize=14;" vertex="1" parent="1">
                    <mxGeometry x="380" y="440" width="110" height="70" as="geometry"/>
                </mxCell>
                <mxCell id="49" value="&lt;font style=&quot;font-size: 16px;&quot;&gt;18 AWG&lt;/font&gt;" style="edgeLabel;html=1;align=left;verticalAlign=middle;resizable=0;points=[];labelBackgroundColor=none;fontColor=#23445D;" vertex="1" connectable="0" parent="1">
                    <mxGeometry x="500.99545454545455" y="197.00272727272727" as="geometry">
                        <mxPoint x="22" y="64" as="offset"/>
                    </mxGeometry>
                </mxCell>
                <mxCell id="50" value="&lt;b&gt;M1&lt;/b&gt;" style="ellipse;whiteSpace=wrap;html=1;aspect=fixed;" vertex="1" parent="1">
                    <mxGeometry x="628" y="350" width="40" height="40" as="geometry"/>
                </mxCell>
                <mxCell id="51" value="&lt;b&gt;M2&lt;/b&gt;" style="ellipse;whiteSpace=wrap;html=1;aspect=fixed;" vertex="1" parent="1">
                    <mxGeometry x="628" y="420" width="40" height="40" as="geometry"/>
                </mxCell>
                <mxCell id="52" value="&lt;b&gt;M4&lt;/b&gt;" style="ellipse;whiteSpace=wrap;html=1;aspect=fixed;" vertex="1" parent="1">
                    <mxGeometry x="628" y="560" width="40" height="40" as="geometry"/>
                </mxCell>
                <mxCell id="53" value="" style="edgeStyle=orthogonalEdgeStyle;strokeWidth=4;endArrow=block;endFill=1;fontStyle=1;strokeColor=#23445D;entryX=0;entryY=0.5;entryDx=0;entryDy=0;elbow=vertical;exitX=0.75;exitY=0;exitDx=0;exitDy=0;" edge="1" parent="1" source="48" target="50">
                    <mxGeometry x="-8" y="235.5" width="100" height="100" as="geometry">
                        <mxPoint x="499" y="440" as="sourcePoint"/>
                        <mxPoint x="619" y="486" as="targetPoint"/>
                        <Array as="points">
                            <mxPoint x="460" y="440"/>
                            <mxPoint x="460" y="420"/>
                            <mxPoint x="530" y="420"/>
                            <mxPoint x="530" y="370"/>
                        </Array>
                    </mxGeometry>
                </mxCell>
                <mxCell id="54" value="" style="edgeStyle=elbowEdgeStyle;strokeWidth=4;endArrow=block;endFill=1;fontStyle=1;strokeColor=#23445D;exitX=1;exitY=0.25;exitDx=0;exitDy=0;entryX=0;entryY=0.5;entryDx=0;entryDy=0;" edge="1" parent="1" source="48" target="51">
                    <mxGeometry x="-8" y="235.5" width="100" height="100" as="geometry">
                        <mxPoint x="539" y="457.5" as="sourcePoint"/>
                        <mxPoint x="659" y="520" as="targetPoint"/>
                        <Array as="points">
                            <mxPoint x="540" y="480"/>
                        </Array>
                    </mxGeometry>
                </mxCell>
                <mxCell id="55" value="" style="edgeStyle=elbowEdgeStyle;strokeWidth=4;endArrow=block;endFill=1;fontStyle=1;strokeColor=#23445D;exitX=1;exitY=0.75;exitDx=0;exitDy=0;entryX=0;entryY=0.5;entryDx=0;entryDy=0;" edge="1" parent="1" source="48" target="56">
                    <mxGeometry x="-8" y="235.5" width="100" height="100" as="geometry">
                        <mxPoint x="539" y="492.5" as="sourcePoint"/>
                        <mxPoint x="759" y="450" as="targetPoint"/>
                        <Array as="points">
                            <mxPoint x="540" y="530"/>
                        </Array>
                    </mxGeometry>
                </mxCell>
                <mxCell id="56" value="&lt;b&gt;M3&lt;/b&gt;" style="ellipse;whiteSpace=wrap;html=1;aspect=fixed;" vertex="1" parent="1">
                    <mxGeometry x="628" y="490" width="40" height="40" as="geometry"/>
                </mxCell>
                <mxCell id="57" value="" style="edgeStyle=orthogonalEdgeStyle;strokeWidth=4;endArrow=block;endFill=1;fontStyle=1;strokeColor=#23445D;entryX=0;entryY=0.5;entryDx=0;entryDy=0;elbow=vertical;exitX=0.75;exitY=1;exitDx=0;exitDy=0;" edge="1" parent="1" source="48" target="52">
                    <mxGeometry x="-8" y="235.5" width="100" height="100" as="geometry">
                        <mxPoint x="499" y="510" as="sourcePoint"/>
                        <mxPoint x="747" y="390" as="targetPoint"/>
                        <Array as="points">
                            <mxPoint x="463" y="530"/>
                            <mxPoint x="530" y="530"/>
                            <mxPoint x="530" y="580"/>
                        </Array>
                    </mxGeometry>
                </mxCell>
                <mxCell id="58" style="edgeStyle=elbowEdgeStyle;rounded=0;orthogonalLoop=1;jettySize=auto;html=1;exitX=0.5;exitY=0;exitDx=0;exitDy=0;dashed=1;strokeColor=#23445D;fontColor=#23445D;" edge="1" parent="1" source="59">
                    <mxGeometry relative="1" as="geometry">
                        <mxPoint x="620" y="320" as="targetPoint"/>
                        <Array as="points">
                            <mxPoint x="579" y="330"/>
                        </Array>
                    </mxGeometry>
                </mxCell>
                <mxCell id="59" value="" style="ellipse;whiteSpace=wrap;html=1;strokeColor=#23445D;fillColor=none;dashed=1;fontColor=#23445D;" vertex="1" parent="1">
                    <mxGeometry x="569" y="340" width="20" height="280" as="geometry"/>
                </mxCell>
                <mxCell id="60" value="&lt;font style=&quot;font-size: 16px;&quot;&gt;3-phase&lt;/font&gt;" style="edgeLabel;html=1;align=left;verticalAlign=middle;resizable=0;points=[];labelBackgroundColor=none;fontColor=#23445D;" vertex="1" connectable="0" parent="1">
                    <mxGeometry x="606.9954545454545" y="255.00272727272727" as="geometry">
                        <mxPoint x="22" y="64" as="offset"/>
                    </mxGeometry>
                </mxCell>
                <mxCell id="61" value="&lt;font style=&quot;font-size: 16px;&quot;&gt;18 AWG&lt;br&gt;&lt;/font&gt;" style="edgeLabel;html=1;align=left;verticalAlign=middle;resizable=0;points=[];labelBackgroundColor=none;fontColor=#23445D;" vertex="1" connectable="0" parent="1">
                    <mxGeometry x="312.99545454545455" y="197.00272727272727" as="geometry">
                        <mxPoint x="22" y="64" as="offset"/>
                    </mxGeometry>
                </mxCell>
                <mxCell id="62" value="&lt;font style=&quot;font-size: 16px;&quot;&gt;5v&lt;/font&gt;" style="edgeLabel;html=1;align=left;verticalAlign=middle;resizable=0;points=[];labelBackgroundColor=none;fontColor=#B85450;fontStyle=1" vertex="1" connectable="0" parent="1">
                    <mxGeometry x="486.99545454545455" y="164.00272727272727" as="geometry">
                        <mxPoint x="22" y="64" as="offset"/>
                    </mxGeometry>
                </mxCell>
                <mxCell id="63" value="&lt;font style=&quot;font-size: 16px;&quot;&gt;22.2v&lt;/font&gt;" style="edgeLabel;html=1;align=left;verticalAlign=middle;resizable=0;points=[];labelBackgroundColor=none;fontColor=#B85450;fontStyle=1" vertex="1" connectable="0" parent="1">
                    <mxGeometry x="374.99545454545455" y="164.00272727272727" as="geometry">
                        <mxPoint x="22" y="64" as="offset"/>
                    </mxGeometry>
                </mxCell>
                <mxCell id="64" value="&lt;font style=&quot;font-size: 16px;&quot;&gt;5v usb-c&lt;/font&gt;" style="edgeLabel;html=1;align=left;verticalAlign=middle;resizable=0;points=[];labelBackgroundColor=none;fontColor=#23445D;" vertex="1" connectable="0" parent="1">
                    <mxGeometry x="949.9954545454545" y="198.00272727272727" as="geometry">
                        <mxPoint x="22" y="64" as="offset"/>
                    </mxGeometry>
                </mxCell>
                <mxCell id="65" value="Pi-4B" style="rounded=1;fillColor=#10739E;strokeColor=none;shadow=1;gradientColor=none;fontStyle=1;fontColor=#FFFFFF;fontSize=14;" vertex="1" parent="1">
                    <mxGeometry x="884" y="365" width="80" height="60" as="geometry"/>
                </mxCell>
                <mxCell id="66" value="" style="sketch=0;aspect=fixed;pointerEvents=1;shadow=0;dashed=0;html=1;strokeColor=none;labelPosition=center;verticalLabelPosition=bottom;verticalAlign=top;align=center;fillColor=#00188D;shape=mxgraph.mscae.enterprise.wireless_connection" vertex="1" parent="1">
                    <mxGeometry x="978" y="365" width="42" height="50" as="geometry"/>
                </mxCell>
                <mxCell id="67" value="Laptop running&#10;Mission Planner" style="rounded=1;fillColor=#e1d5e7;strokeColor=#9673a6;shadow=1;fontStyle=1;fontSize=14;" vertex="1" parent="1">
                    <mxGeometry x="1032" y="370" width="130" height="40" as="geometry"/>
                </mxCell>
                <mxCell id="68" value="&lt;span style=&quot;font-size: 16px;&quot;&gt;&lt;b&gt;VNC&lt;/b&gt;&lt;/span&gt;" style="edgeLabel;html=1;align=left;verticalAlign=middle;resizable=0;points=[];labelBackgroundColor=none;fontColor=#23445D;" vertex="1" connectable="0" parent="1">
                    <mxGeometry x="958.9954545454545" y="289.00272727272727" as="geometry">
                        <mxPoint x="22" y="64" as="offset"/>
                    </mxGeometry>
                </mxCell>
                <mxCell id="69" value="Y-adapter" style="rounded=1;fillColor=#10739E;strokeColor=none;shadow=1;gradientColor=none;fontStyle=1;fontColor=#FFFFFF;fontSize=14;" vertex="1" parent="1">
                    <mxGeometry x="884" y="245" width="80" height="60" as="geometry"/>
                </mxCell>
                <mxCell id="70" value="Oak-D Lite&#10;Camera" style="rounded=1;fillColor=#10739E;strokeColor=none;shadow=1;gradientColor=none;fontStyle=1;fontColor=#FFFFFF;fontSize=14;" vertex="1" parent="1">
                    <mxGeometry x="1060" y="245" width="102" height="60" as="geometry"/>
                </mxCell>
                <mxCell id="71" value="" style="edgeStyle=elbowEdgeStyle;strokeWidth=4;endArrow=block;endFill=1;fontStyle=1;strokeColor=#23445D;exitX=1;exitY=0.5;exitDx=0;exitDy=0;entryX=0;entryY=0.5;entryDx=0;entryDy=0;" edge="1" parent="1" source="69" target="70">
                    <mxGeometry x="2" y="-269.5" width="100" height="100" as="geometry">
                        <mxPoint x="456" y="165" as="sourcePoint"/>
                        <mxPoint x="574" y="165" as="targetPoint"/>
                    </mxGeometry>
                </mxCell>
                <mxCell id="77" value="" style="edgeStyle=elbowEdgeStyle;rounded=0;orthogonalLoop=1;jettySize=auto;html=1;dashed=1;strokeColor=#23445D;fontColor=#23445D;endArrow=none;" edge="1" parent="1">
                    <mxGeometry relative="1" as="geometry">
                        <mxPoint x="656.9814239700004" y="650" as="targetPoint"/>
                        <Array as="points"/>
                        <mxPoint x="654" y="650" as="sourcePoint"/>
                    </mxGeometry>
                </mxCell>
            </root>
        </mxGraphModel>
    </diagram>
</mxfile>